<?xml version="1.0" standalone="no"?><!-- Created with ZXing.Net (http://zxingnet.codeplex.com/) --><!DOCTYPE svg PUBLIC "-//W3C//DTD SVG 1.1//EN" "http://www.w3.org/Graphics/SVG/1.1/DTD/svg11.dtd"><svg xmlns="http://www.w3.org/2000/svg" version="1.2" baseProfile="tiny" shape-rendering="crispEdges" viewBox="0 0 1024 1024" viewport-fill="rgb(255,255,255)" viewport-fill-opacity="1" fill="rgb(0,0,0)" fill-opacity="1" style="background-color:rgb(255,255,255);background-color:rgba(255, 255, 255, 1);"><rect x="46" y="46" width="19" height="133"/><rect x="46" y="198" width="19" height="57"/><rect x="46" y="274" width="19" height="57"/><rect x="46" y="369" width="57" height="19"/><rect x="46" y="502" width="19" height="19"/><rect x="46" y="559" width="76" height="19"/><rect x="46" y="597" width="19" height="19"/><rect x="46" y="692" width="19" height="19"/><rect x="46" y="730" width="57" height="19"/><rect x="46" y="806" width="57" height="19"/><rect x="46" y="844" width="19" height="133"/><rect x="65" y="46" width="114" height="19"/><rect x="65" y="160" width="114" height="19"/><rect x="65" y="217" width="19" height="19"/><rect x="65" y="255" width="76" height="19"/><rect x="65" y="293" width="38" height="19"/><rect x="65" y="350" width="38" height="38"/><rect x="65" y="407" width="19" height="19"/><rect x="65" y="464" width="19" height="38"/><rect x="65" y="578" width="19" height="19"/><rect x="65" y="635" width="19" height="38"/><rect x="65" y="711" width="19" height="38"/><rect x="65" y="768" width="19" height="57"/><rect x="65" y="844" width="114" height="19"/><rect x="65" y="958" width="114" height="19"/><rect x="84" y="84" width="57" height="57"/><rect x="84" y="236" width="19" height="76"/><rect x="84" y="388" width="38" height="19"/><rect x="84" y="483" width="19" height="38"/><rect x="84" y="597" width="76" height="19"/><rect x="84" y="673" width="19" height="38"/><rect x="84" y="749" width="19" height="19"/><rect x="84" y="787" width="19" height="38"/><rect x="84" y="882" width="57" height="57"/><rect x="103" y="236" width="19" height="38"/><rect x="103" y="312" width="38" height="19"/><rect x="103" y="350" width="19" height="19"/><rect x="103" y="483" width="38" height="19"/><rect x="103" y="578" width="57" height="38"/><rect x="103" y="673" width="57" height="19"/><rect x="103" y="787" width="19" height="19"/><rect x="122" y="198" width="19" height="19"/><rect x="122" y="274" width="19" height="76"/><rect x="122" y="369" width="38" height="19"/><rect x="122" y="407" width="19" height="19"/><rect x="122" y="445" width="19" height="114"/><rect x="122" y="654" width="19" height="38"/><rect x="122" y="749" width="38" height="19"/><rect x="141" y="217" width="19" height="19"/><rect x="141" y="274" width="19" height="38"/><rect x="141" y="331" width="19" height="19"/><rect x="141" y="426" width="19" height="57"/><rect x="141" y="540" width="19" height="114"/><rect x="141" y="730" width="19" height="57"/><rect x="160" y="65" width="19" height="114"/><rect x="160" y="198" width="57" height="19"/><rect x="160" y="236" width="38" height="19"/><rect x="160" y="274" width="38" height="19"/><rect x="160" y="312" width="38" height="19"/><rect x="160" y="350" width="19" height="19"/><rect x="160" y="388" width="38" height="19"/><rect x="160" y="426" width="19" height="19"/><rect x="160" y="464" width="57" height="19"/><rect x="160" y="502" width="19" height="19"/><rect x="160" y="540" width="57" height="19"/><rect x="160" y="578" width="76" height="19"/><rect x="160" y="616" width="19" height="19"/><rect x="160" y="654" width="19" height="19"/><rect x="160" y="692" width="38" height="19"/><rect x="160" y="730" width="38" height="19"/><rect x="160" y="768" width="19" height="19"/><rect x="160" y="806" width="76" height="19"/><rect x="160" y="863" width="19" height="114"/><rect x="179" y="293" width="19" height="38"/><rect x="179" y="369" width="19" height="57"/><rect x="179" y="445" width="38" height="38"/><rect x="179" y="559" width="38" height="38"/><rect x="179" y="635" width="38" height="19"/><rect x="179" y="673" width="19" height="95"/><rect x="179" y="787" width="57" height="38"/><rect x="198" y="46" width="38" height="19"/><rect x="198" y="103" width="19" height="114"/><rect x="198" y="350" width="38" height="19"/><rect x="198" y="407" width="19" height="266"/><rect x="198" y="711" width="38" height="19"/><rect x="198" y="768" width="38" height="95"/><rect x="198" y="882" width="19" height="19"/><rect x="198" y="958" width="76" height="19"/><rect x="217" y="65" width="19" height="57"/><rect x="217" y="141" width="152" height="19"/><rect x="217" y="179" width="19" height="19"/><rect x="217" y="217" width="19" height="19"/><rect x="217" y="274" width="19" height="19"/><rect x="217" y="369" width="19" height="38"/><rect x="217" y="426" width="19" height="38"/><rect x="217" y="483" width="57" height="38"/><rect x="217" y="616" width="19" height="19"/><rect x="217" y="692" width="19" height="57"/><rect x="217" y="901" width="19" height="38"/><rect x="236" y="65" width="76" height="19"/><rect x="236" y="103" width="19" height="76"/><rect x="236" y="293" width="19" height="19"/><rect x="236" y="407" width="19" height="19"/><rect x="236" y="445" width="38" height="19"/><rect x="236" y="521" width="19" height="38"/><rect x="236" y="597" width="38" height="19"/><rect x="236" y="673" width="19" height="38"/><rect x="236" y="730" width="19" height="38"/><rect x="236" y="844" width="19" height="57"/><rect x="255" y="122" width="19" height="38"/><rect x="255" y="179" width="19" height="19"/><rect x="255" y="236" width="19" height="19"/><rect x="255" y="312" width="19" height="38"/><rect x="255" y="464" width="19" height="76"/><rect x="255" y="578" width="19" height="38"/><rect x="255" y="654" width="19" height="19"/><rect x="255" y="692" width="19" height="19"/><rect x="255" y="730" width="19" height="19"/><rect x="255" y="787" width="19" height="57"/><rect x="255" y="863" width="19" height="19"/><rect x="255" y="901" width="19" height="19"/><rect x="255" y="939" width="19" height="38"/><rect x="274" y="46" width="19" height="57"/><rect x="274" y="160" width="19" height="19"/><rect x="274" y="255" width="38" height="19"/><rect x="274" y="350" width="19" height="57"/><rect x="274" y="426" width="19" height="19"/><rect x="274" y="502" width="19" height="19"/><rect x="274" y="540" width="38" height="38"/><rect x="274" y="635" width="38" height="19"/><rect x="274" y="673" width="76" height="19"/><rect x="274" y="711" width="38" height="19"/><rect x="274" y="768" width="76" height="19"/><rect x="274" y="806" width="19" height="38"/><rect x="274" y="920" width="19" height="19"/><rect x="293" y="46" width="19" height="38"/><rect x="293" y="122" width="19" height="38"/><rect x="293" y="179" width="19" height="38"/><rect x="293" y="236" width="19" height="38"/><rect x="293" y="293" width="19" height="19"/><rect x="293" y="350" width="19" height="38"/><rect x="293" y="445" width="38" height="57"/><rect x="293" y="521" width="19" height="57"/><rect x="293" y="597" width="19" height="57"/><rect x="293" y="844" width="57" height="19"/><rect x="312" y="160" width="19" height="38"/><rect x="312" y="274" width="57" height="19"/><rect x="312" y="312" width="57" height="38"/><rect x="312" y="388" width="19" height="133"/><rect x="312" y="559" width="19" height="38"/><rect x="312" y="730" width="19" height="19"/><rect x="312" y="787" width="19" height="19"/><rect x="312" y="825" width="19" height="57"/><rect x="312" y="920" width="19" height="57"/><rect x="331" y="46" width="38" height="38"/><rect x="331" y="103" width="57" height="19"/><rect x="331" y="198" width="19" height="19"/><rect x="331" y="255" width="19" height="95"/><rect x="331" y="426" width="19" height="19"/><rect x="331" y="502" width="19" height="38"/><rect x="331" y="578" width="38" height="38"/><rect x="331" y="635" width="19" height="57"/><rect x="331" y="806" width="95" height="19"/><rect x="331" y="901" width="38" height="57"/><rect x="350" y="84" width="38" height="38"/><rect x="350" y="160" width="19" height="19"/><rect x="350" y="255" width="19" height="38"/><rect x="350" y="350" width="19" height="38"/><rect x="350" y="445" width="19" height="19"/><rect x="350" y="559" width="19" height="76"/><rect x="350" y="654" width="38" height="19"/><rect x="350" y="692" width="19" height="19"/><rect x="350" y="730" width="57" height="38"/><rect x="350" y="825" width="57" height="19"/><rect x="350" y="863" width="19" height="95"/><rect x="369" y="65" width="19" height="76"/><rect x="369" y="179" width="38" height="19"/><rect x="369" y="236" width="57" height="19"/><rect x="369" y="293" width="38" height="19"/><rect x="369" y="331" width="19" height="19"/><rect x="369" y="369" width="19" height="38"/><rect x="369" y="502" width="19" height="19"/><rect x="369" y="559" width="19" height="19"/><rect x="369" y="673" width="38" height="19"/><rect x="369" y="787" width="38" height="57"/><rect x="369" y="901" width="19" height="38"/><rect x="388" y="65" width="19" height="19"/><rect x="388" y="141" width="19" height="57"/><rect x="388" y="255" width="19" height="76"/><rect x="388" y="369" width="57" height="19"/><rect x="388" y="407" width="95" height="19"/><rect x="388" y="445" width="19" height="57"/><rect x="388" y="521" width="38" height="38"/><rect x="388" y="578" width="19" height="19"/><rect x="388" y="616" width="38" height="19"/><rect x="388" y="711" width="19" height="133"/><rect x="388" y="863" width="38" height="38"/><rect x="388" y="939" width="114" height="19"/><rect x="407" y="46" width="38" height="19"/><rect x="407" y="103" width="19" height="38"/><rect x="407" y="217" width="19" height="76"/><rect x="407" y="331" width="38" height="19"/><rect x="407" y="388" width="19" height="57"/><rect x="407" y="464" width="19" height="19"/><rect x="407" y="597" width="19" height="38"/><rect x="407" y="654" width="38" height="19"/><rect x="407" y="692" width="19" height="19"/><rect x="407" y="730" width="38" height="19"/><rect x="407" y="768" width="57" height="19"/><rect x="407" y="844" width="19" height="57"/><rect x="407" y="958" width="19" height="19"/><rect x="426" y="65" width="57" height="19"/><rect x="426" y="122" width="19" height="57"/><rect x="426" y="217" width="95" height="19"/><rect x="426" y="274" width="95" height="19"/><rect x="426" y="312" width="19" height="38"/><rect x="426" y="445" width="76" height="19"/><rect x="426" y="483" width="19" height="19"/><rect x="426" y="521" width="57" height="19"/><rect x="426" y="578" width="19" height="38"/><rect x="426" y="673" width="19" height="19"/><rect x="426" y="711" width="19" height="76"/><rect x="426" y="825" width="19" height="19"/><rect x="426" y="882" width="152" height="19"/><rect x="426" y="920" width="19" height="38"/><rect x="445" y="103" width="57" height="19"/><rect x="445" y="141" width="38" height="19"/><rect x="445" y="236" width="19" height="19"/><rect x="445" y="293" width="19" height="38"/><rect x="445" y="426" width="57" height="57"/><rect x="445" y="540" width="133" height="19"/><rect x="445" y="635" width="19" height="19"/><rect x="445" y="692" width="38" height="19"/><rect x="445" y="863" width="38" height="57"/><rect x="445" y="958" width="19" height="19"/><rect x="464" y="84" width="19" height="152"/><rect x="464" y="255" width="19" height="57"/><rect x="464" y="388" width="19" height="190"/><rect x="464" y="616" width="76" height="19"/><rect x="464" y="673" width="19" height="38"/><rect x="464" y="787" width="19" height="171"/><rect x="483" y="122" width="76" height="19"/><rect x="483" y="198" width="19" height="95"/><rect x="483" y="350" width="38" height="19"/><rect x="483" y="559" width="19" height="19"/><rect x="483" y="597" width="19" height="38"/><rect x="483" y="654" width="38" height="38"/><rect x="483" y="749" width="38" height="19"/><rect x="483" y="806" width="95" height="19"/><rect x="483" y="901" width="76" height="19"/><rect x="483" y="958" width="38" height="19"/><rect x="502" y="65" width="19" height="19"/><rect x="502" y="160" width="19" height="19"/><rect x="502" y="198" width="19" height="38"/><rect x="502" y="293" width="19" height="19"/><rect x="502" y="331" width="19" height="76"/><rect x="502" y="426" width="38" height="19"/><rect x="502" y="464" width="57" height="19"/><rect x="502" y="502" width="19" height="19"/><rect x="502" y="578" width="19" height="19"/><rect x="502" y="635" width="19" height="76"/><rect x="502" y="844" width="19" height="19"/><rect x="521" y="46" width="57" height="19"/><rect x="521" y="103" width="38" height="38"/><rect x="521" y="198" width="57" height="19"/><rect x="521" y="312" width="19" height="38"/><rect x="521" y="388" width="19" height="57"/><rect x="521" y="597" width="19" height="76"/><rect x="521" y="692" width="19" height="19"/><rect x="521" y="768" width="19" height="19"/><rect x="521" y="920" width="19" height="19"/><rect x="540" y="65" width="19" height="19"/><rect x="540" y="141" width="19" height="95"/><rect x="540" y="255" width="19" height="57"/><rect x="540" y="331" width="19" height="95"/><rect x="540" y="483" width="19" height="76"/><rect x="540" y="578" width="19" height="38"/><rect x="540" y="635" width="19" height="38"/><rect x="540" y="711" width="38" height="57"/><rect x="540" y="787" width="19" height="133"/><rect x="540" y="958" width="57" height="19"/><rect x="559" y="84" width="38" height="19"/><rect x="559" y="179" width="19" height="38"/><rect x="559" y="274" width="19" height="95"/><rect x="559" y="407" width="19" height="57"/><rect x="559" y="521" width="19" height="76"/><rect x="559" y="673" width="19" height="190"/><rect x="559" y="939" width="38" height="38"/><rect x="578" y="103" width="19" height="95"/><rect x="578" y="217" width="38" height="57"/><rect x="578" y="331" width="19" height="57"/><rect x="578" y="616" width="38" height="38"/><rect x="578" y="692" width="19" height="38"/><rect x="578" y="787" width="38" height="19"/><rect x="578" y="825" width="57" height="19"/><rect x="578" y="901" width="19" height="76"/><rect x="597" y="65" width="95" height="19"/><rect x="597" y="103" width="19" height="19"/><rect x="597" y="141" width="19" height="19"/><rect x="597" y="179" width="19" height="95"/><rect x="597" y="293" width="19" height="38"/><rect x="597" y="369" width="19" height="114"/><rect x="597" y="559" width="19" height="114"/><rect x="597" y="749" width="38" height="19"/><rect x="597" y="806" width="38" height="57"/><rect x="597" y="901" width="38" height="38"/><rect x="616" y="46" width="19" height="57"/><rect x="616" y="122" width="19" height="19"/><rect x="616" y="160" width="19" height="19"/><rect x="616" y="217" width="38" height="19"/><rect x="616" y="255" width="19" height="19"/><rect x="616" y="293" width="38" height="19"/><rect x="616" y="331" width="19" height="19"/><rect x="616" y="426" width="19" height="38"/><rect x="616" y="521" width="19" height="38"/><rect x="616" y="597" width="19" height="19"/><rect x="616" y="654" width="19" height="38"/><rect x="616" y="711" width="38" height="19"/><rect x="616" y="768" width="38" height="19"/><rect x="616" y="863" width="19" height="95"/><rect x="635" y="103" width="19" height="19"/><rect x="635" y="141" width="19" height="19"/><rect x="635" y="312" width="19" height="19"/><rect x="635" y="369" width="19" height="57"/><rect x="635" y="445" width="19" height="19"/><rect x="635" y="521" width="19" height="19"/><rect x="635" y="559" width="57" height="19"/><rect x="635" y="616" width="19" height="57"/><rect x="635" y="787" width="19" height="19"/><rect x="635" y="844" width="19" height="38"/><rect x="635" y="901" width="19" height="19"/><rect x="654" y="46" width="19" height="38"/><rect x="654" y="122" width="19" height="19"/><rect x="654" y="160" width="19" height="57"/><rect x="654" y="236" width="19" height="57"/><rect x="654" y="388" width="57" height="57"/><rect x="654" y="464" width="19" height="57"/><rect x="654" y="540" width="19" height="76"/><rect x="654" y="654" width="19" height="38"/><rect x="654" y="730" width="19" height="19"/><rect x="654" y="806" width="38" height="19"/><rect x="654" y="882" width="19" height="19"/><rect x="673" y="103" width="38" height="19"/><rect x="673" y="141" width="38" height="19"/><rect x="673" y="179" width="38" height="19"/><rect x="673" y="217" width="19" height="38"/><rect x="673" y="274" width="19" height="57"/><rect x="673" y="369" width="19" height="95"/><rect x="673" y="502" width="19" height="76"/><rect x="673" y="597" width="19" height="19"/><rect x="673" y="635" width="19" height="38"/><rect x="673" y="711" width="19" height="19"/><rect x="673" y="825" width="19" height="19"/><rect x="673" y="863" width="19" height="19"/><rect x="673" y="901" width="19" height="19"/><rect x="692" y="84" width="19" height="38"/><rect x="692" y="160" width="19" height="57"/><rect x="692" y="236" width="19" height="38"/><rect x="692" y="350" width="19" height="95"/><rect x="692" y="464" width="19" height="57"/><rect x="692" y="635" width="38" height="19"/><rect x="692" y="692" width="19" height="19"/><rect x="692" y="730" width="76" height="19"/><rect x="692" y="787" width="19" height="19"/><rect x="692" y="844" width="57" height="19"/><rect x="692" y="920" width="133" height="19"/><rect x="692" y="958" width="57" height="19"/><rect x="711" y="46" width="38" height="19"/><rect x="711" y="84" width="38" height="19"/><rect x="711" y="122" width="19" height="19"/><rect x="711" y="198" width="38" height="38"/><rect x="711" y="274" width="38" height="38"/><rect x="711" y="331" width="19" height="38"/><rect x="711" y="426" width="38" height="57"/><rect x="711" y="578" width="19" height="76"/><rect x="711" y="673" width="38" height="19"/><rect x="711" y="711" width="19" height="38"/><rect x="711" y="806" width="76" height="19"/><rect x="711" y="939" width="38" height="38"/><rect x="730" y="65" width="19" height="38"/><rect x="730" y="141" width="19" height="38"/><rect x="730" y="388" width="19" height="19"/><rect x="730" y="483" width="38" height="38"/><rect x="730" y="578" width="19" height="38"/><rect x="730" y="654" width="19" height="38"/><rect x="730" y="825" width="19" height="76"/><rect x="749" y="65" width="76" height="19"/><rect x="749" y="236" width="57" height="19"/><rect x="749" y="331" width="76" height="19"/><rect x="749" y="426" width="19" height="19"/><rect x="749" y="654" width="19" height="19"/><rect x="749" y="692" width="19" height="57"/><rect x="749" y="768" width="19" height="57"/><rect x="749" y="901" width="76" height="38"/><rect x="768" y="141" width="19" height="38"/><rect x="768" y="198" width="19" height="152"/><rect x="768" y="369" width="38" height="19"/><rect x="768" y="445" width="38" height="19"/><rect x="768" y="521" width="19" height="95"/><rect x="768" y="635" width="19" height="19"/><rect x="768" y="673" width="19" height="57"/><rect x="768" y="749" width="38" height="19"/><rect x="768" y="787" width="19" height="57"/><rect x="768" y="863" width="38" height="114"/><rect x="787" y="84" width="19" height="38"/><rect x="787" y="217" width="19" height="57"/><rect x="787" y="293" width="19" height="19"/><rect x="787" y="388" width="19" height="38"/><rect x="787" y="464" width="114" height="19"/><rect x="787" y="540" width="114" height="19"/><rect x="787" y="597" width="19" height="38"/><rect x="806" y="46" width="19" height="57"/><rect x="806" y="160" width="19" height="19"/><rect x="806" y="198" width="114" height="19"/><rect x="806" y="255" width="38" height="19"/><rect x="806" y="350" width="19" height="19"/><rect x="806" y="407" width="19" height="19"/><rect x="806" y="483" width="19" height="76"/><rect x="806" y="578" width="19" height="19"/><rect x="806" y="654" width="19" height="19"/><rect x="806" y="711" width="19" height="19"/><rect x="806" y="787" width="19" height="152"/><rect x="806" y="958" width="19" height="19"/><rect x="825" y="293" width="38" height="38"/><rect x="825" y="369" width="19" height="38"/><rect x="825" y="445" width="38" height="38"/><rect x="825" y="559" width="38" height="19"/><rect x="825" y="635" width="19" height="19"/><rect x="825" y="673" width="19" height="19"/><rect x="825" y="730" width="76" height="19"/><rect x="825" y="806" width="76" height="19"/><rect x="825" y="882" width="19" height="38"/><rect x="844" y="46" width="19" height="133"/><rect x="844" y="217" width="19" height="38"/><rect x="844" y="274" width="19" height="57"/><rect x="844" y="350" width="19" height="38"/><rect x="844" y="502" width="19" height="19"/><rect x="844" y="578" width="19" height="38"/><rect x="844" y="749" width="19" height="19"/><rect x="844" y="844" width="19" height="19"/><rect x="844" y="882" width="57" height="19"/><rect x="844" y="958" width="38" height="19"/><rect x="863" y="46" width="114" height="19"/><rect x="863" y="160" width="114" height="19"/><rect x="863" y="312" width="19" height="19"/><rect x="863" y="369" width="38" height="19"/><rect x="863" y="407" width="38" height="38"/><rect x="863" y="578" width="57" height="19"/><rect x="863" y="692" width="19" height="19"/><rect x="863" y="787" width="19" height="38"/><rect x="863" y="939" width="19" height="38"/><rect x="882" y="84" width="57" height="57"/><rect x="882" y="217" width="38" height="38"/><rect x="882" y="274" width="19" height="19"/><rect x="882" y="331" width="19" height="323"/><rect x="882" y="673" width="95" height="19"/><rect x="882" y="749" width="19" height="19"/><rect x="882" y="825" width="19" height="76"/><rect x="901" y="293" width="57" height="19"/><rect x="901" y="388" width="38" height="19"/><rect x="901" y="445" width="57" height="19"/><rect x="901" y="502" width="19" height="19"/><rect x="901" y="692" width="19" height="19"/><rect x="901" y="901" width="38" height="19"/><rect x="920" y="255" width="57" height="19"/><rect x="920" y="312" width="19" height="57"/><rect x="920" y="407" width="19" height="95"/><rect x="920" y="521" width="19" height="57"/><rect x="920" y="597" width="19" height="95"/><rect x="920" y="711" width="38" height="19"/><rect x="920" y="749" width="19" height="76"/><rect x="920" y="863" width="19" height="57"/><rect x="920" y="939" width="38" height="38"/><rect x="939" y="274" width="19" height="57"/><rect x="939" y="350" width="19" height="19"/><rect x="939" y="464" width="19" height="19"/><rect x="939" y="559" width="19" height="19"/><rect x="939" y="597" width="19" height="57"/><rect x="939" y="730" width="38" height="19"/><rect x="939" y="825" width="19" height="19"/><rect x="939" y="920" width="19" height="57"/><rect x="958" y="65" width="19" height="114"/><rect x="958" y="198" width="19" height="38"/><rect x="958" y="369" width="19" height="19"/><rect x="958" y="407" width="19" height="38"/><rect x="958" y="578" width="19" height="19"/><rect x="958" y="654" width="19" height="38"/><rect x="958" y="749" width="19" height="19"/><rect x="958" y="882" width="19" height="57"/><rect x="958" y="958" width="19" height="19"/></svg>